<svg xmlns="http://www.w3.org/2000/svg" width="132" height="36" preserveAspectRatio="xMinYMin meet" viewBox="0 0 185 51">
  <path d="m4.73010157 47.178324-2.10236942 3.2946116H.39402205L0 33.9998776h1.57663929c2.75907284 7.5116777 6.83210359 14.6279653 14.97834881 14.6279653 5.780827 0 8.6714242-3.5581438 8.6714242-8.8293387 0-4.3489241-2.1021857-7.5116777-6.4378978-9.3567704-3.678825-1.5811932-6.1752165-2.5038314-9.85422519-4.2168825-4.86125855-2.2404828-7.75185577-6.1938331-7.75185577-12.3876662 0-7.51167773 5.78119443-13.0465885 13.53305016-13.0465885 3.2846193 0 7.4891744 1.44970256 9.8540415 3.42646953l1.9708451-3.16293733h2.3650508l.394022 16.0776679h-1.5766393c-2.6277321-8.03892577-5.7810107-14.10090094-14.321278-14.10090094-1.8393206 0-6.56942221 1.71323477-6.56942221 7.24814554 0 4.3487404 1.83950436 6.7208975 5.78119441 9.0930546 3.1532786 1.844909 6.4378979 2.7675472 9.3284951 4.2170661 5.2554643 2.6356893 9.1971544 5.5349108 9.1971544 12.7828727C31.1389475 44.9380248 24.7008659 51 16.029258 51c-5.5181457-.3953901-9.32849509-2.1086249-11.29934013-3.821676h.0001837zM32.7157704 33.6046711c0-8.6976645 5.5181457-16.7365902 14.3210943-16.7365902 6.5694223 0 9.8540415 3.821676 9.8540415 8.1706 0 2.3721571-1.3137742 3.9535339-3.5474843 3.9535339-1.3137742 0-3.8101657-.7907802-3.8101657-3.5581438 0-2.8992214.7884115-3.0310794.7884115-4.3487404-.3942057-2.1086249-1.3139579-2.504015-3.4161436-2.504015-3.8103494 0-7.3578338 3.6900018-7.3578338 14.3644332 0 8.5658065 3.0219379 14.4961074 8.5402673 14.4961074 4.3358958 0 6.963628-2.2404828 8.934473-6.325691l1.4452986 1.0543124c-2.3650508 4.6124563-6.8322873 8.4341323-11.8250702 8.4341323-9.3284951 0-13.9270723-7.2479619-13.9270723-17.0001225l.0001837.0001837zM62.2778949 4.48059833C62.2778949 2.10844124 64.1173993 0 66.4822664 0c2.6277321 0 4.3358958 1.84490904 4.3358958 4.21706613 0 2.50383136-1.8395044 4.6122726-4.3358958 4.6122726-2.3648671 0-4.2043715-1.97676696-4.2043715-4.3487404zM59.2561407 48.2324528c1.0509092-.1316743 1.9706614-.2635322 2.8904135-.5270644 1.1824336-.3953901 1.70798-1.7132348 1.70798-3.1627537v-20.294734c-.1313407-1.4495189-.6568871-2.7673636-1.70798-3.5579602-.7884115-.5270644-2.7590728-1.3178446-3.8103494-1.3178446v-1.3178447l11.4308645-.7907802.3940221.5270644v26.3568928c0 1.449519.6570708 2.6355057 1.7081636 3.294428.9197522.5270644 2.1021858.7905966 2.8904136.7905966v1.4497026H59.3872977v-1.4497026h-.1313407.0001837zm34.029361-18.8450315c0-5.139337-.9197522-10.8061057-5.3869887-10.8061057-3.8101657 0-6.5694222 4.3487404-6.7007629 11.0698216l12.0877516-.2635322v-.0001837zm-18.9198552 4.0853919c0-8.4341323 4.9927829-16.6047323 13.5328665-16.6047323 8.8029486 0 12.0877516 6.325691 12.0877516 13.5736529v.6589223H81.1977501v.7907802c0 9.0930546 2.6277321 15.5504199 9.1971544 15.5504199 4.7301015 0 6.4380815-1.976767 8.8029486-6.325691l1.3139579.7907802c-2.2337101 5.0078464-6.5694222 8.5659902-11.8248865 8.5659902-9.7228845.1316743-14.321278-7.643352-14.321278-17.0001224zm26.4066175 14.451247c1.041446-.1302983 1.952757-.2607784 2.863886-.5215567 1.171763-.3912583 1.692486-1.5648517 1.692486-3.1297034V24.190143c-.130317-1.4343717-.65104-2.8687434-1.692486-3.6512601-.650859-.5215566-2.082893-1.0431133-3.124339-1.1735933v-1.3040734l10.544779-.7825167.520724.5215567v4.6947368h.130135c2.47348-2.6081468 4.816825-5.7378501 10.024056-5.7378501 5.727954 0 8.461887 4.4337767 8.461887 11.0844418v16.1704371c0 1.56467.520541 2.6081467 1.56217 3.1297034.911311.3912583 1.692304.6520367 2.864068.782335v1.4345534h-15.361423v-1.4345534c1.041264-.1302983 2.08271-.2607784 2.863886-.5215567 1.171582-.3912583 1.692305-1.5648517 1.692305-3.1297034V27.7112864c0-4.8250351-2.343163-7.4331818-4.946961-7.4331818-4.29592 0-6.7694 2.8689251-7.420441 4.5642568V43.88136c0 1.5648517.520905 2.6081468 1.562352 3.1297034.780993.5215567 1.952757.7825167 2.864068.7825167v1.4343717h-15.231652v-1.3040734h.130318l.000182.0001818zm32.675602-14.4749236c0-8.6067752 5.467684-16.5616954 14.189841-16.5616954 6.50913 0 9.763786 3.78174 9.763786 8.0852185 0 2.3473684-1.301899 3.9122201-3.514926 3.9122201-1.301899 0-3.775379-.7825167-3.775379-3.5209618 0-2.868925.781175-2.999405.781175-4.3032967-.390587-2.0865901-1.301898-2.4778484-3.384791-2.4778484-3.775197 0-7.290123 3.6514418-7.290123 14.214327 0 8.4762951 2.994021 14.3446253 8.461705 14.3446253 4.296102 0 6.899899-2.2170701 8.852474-6.2595885l1.432035 1.043295c-2.343345 4.5642568-6.769583 8.3459969-11.716361 8.3459969-9.243063 0-13.799436-7.1722218-13.799436-16.8224738v.0001818zm44.392328-4.1731802c0-5.0856317-.911493-10.6931835-5.337549-10.6931835-3.775379 0-6.509129 4.3032967-6.639447 10.9541436l11.976814-.2607784.000182-.0001817zm-18.746396 4.0427001c0-8.3459968 4.94696-16.4312153 13.408847-16.4312153 8.722158 0 11.976632 6.2595885 11.976632 13.4318102v.6520367h-18.616079v.7825167c0 8.9980336 2.603798 15.3879204 9.112746 15.3879204 4.68669 0 6.378994-1.9561101 8.722339-6.2595885L185 41.6646534c-2.21321 4.9555151-6.50913 8.4764769-11.716361 8.4764769-9.763604.1302983-14.189841-7.5634802-14.189841-16.8224738z"/>
</svg>